<svg width="10" height="10" viewBox="0 0 10 10" fill="none" xmlns="http://www.w3.org/2000/svg">
<path d="M4.82281 9.77832L3.34332 8.29883H1.41364V6.3252L0.0161743 4.92773L0.000549316 4.91113L1.41364 3.49805V1.50195H3.34332L4.82281 0.0224609V0L4.83453 0.0117188L4.84528 0V0.0224609L6.32477 1.50195H8.25446V3.49805L9.66754 4.91113L9.65192 4.92773L8.25446 6.3252V8.29883H6.32477L4.84528 9.77832V9.80078L4.83453 9.79004L4.82281 9.80078V9.77832Z" fill="#D4683F"/>
<path d="M4.74685 6.18418L6.37662 7.16784L5.94412 5.31391L7.38401 4.06653L5.48789 3.90567L4.74685 2.15723L4.0058 3.90567L2.10968 4.06653L3.54957 5.31391L3.11708 7.16784L4.74685 6.18418Z" fill="#FFC33E"/>
</svg>
